solid OpenSCAD_Model
  facet normal -1 0 0
    outer loop
      vertex 0 -5 -16.75
      vertex 0 0 0
      vertex 0 0 -16.75
    endloop
  endfacet
  facet normal -1 0 0
    outer loop
      vertex 0 -5 7.25
      vertex 0 0 0
      vertex 0 -5 -16.75
    endloop
  endfacet
  facet normal -1 0 0
    outer loop
      vertex 0 0 0
      vertex 0 -5 7.25
      vertex 0 0 7.25
    endloop
  endfacet
  facet normal 0 0 1
    outer loop
      vertex 29.5 0 7.25
      vertex 28.25 -1.25 7.25
      vertex 29.5 -5 7.25
    endloop
  endfacet
  facet normal 0 0 1
    outer loop
      vertex 29.5 0 7.25
      vertex 1.25 -1.25 7.25
      vertex 28.25 -1.25 7.25
    endloop
  endfacet
  facet normal 0 0 1
    outer loop
      vertex 1.25 -1.25 7.25
      vertex 0 0 7.25
      vertex 1.25 -3.75 7.25
    endloop
  endfacet
  facet normal -0 0 1
    outer loop
      vertex 0 0 7.25
      vertex 1.25 -1.25 7.25
      vertex 29.5 0 7.25
    endloop
  endfacet
  facet normal -0 0 1
    outer loop
      vertex 28.25 -3.75 7.25
      vertex 29.5 -5 7.25
      vertex 28.25 -1.25 7.25
    endloop
  endfacet
  facet normal -0 0 1
    outer loop
      vertex 1.25 -3.75 7.25
      vertex 29.5 -5 7.25
      vertex 28.25 -3.75 7.25
    endloop
  endfacet
  facet normal 0 0 1
    outer loop
      vertex 1.25 -3.75 7.25
      vertex 0 -5 7.25
      vertex 29.5 -5 7.25
    endloop
  endfacet
  facet normal 0 0 1
    outer loop
      vertex 0 -5 7.25
      vertex 1.25 -3.75 7.25
      vertex 0 0 7.25
    endloop
  endfacet
  facet normal 1 -0 0
    outer loop
      vertex 29.5 -5 7.25
      vertex 29.5 0 0
      vertex 29.5 0 7.25
    endloop
  endfacet
  facet normal 1 0 0
    outer loop
      vertex 29.5 -5 -16.75
      vertex 29.5 0 0
      vertex 29.5 -5 7.25
    endloop
  endfacet
  facet normal 1 0 0
    outer loop
      vertex 29.5 0 0
      vertex 29.5 -5 -16.75
      vertex 29.5 0 -16.75
    endloop
  endfacet
  facet normal 0 0 -1
    outer loop
      vertex 0 -5 -16.75
      vertex 29.5 0 -16.75
      vertex 29.5 -5 -16.75
    endloop
  endfacet
  facet normal -0 0 -1
    outer loop
      vertex 29.5 0 -16.75
      vertex 0 -5 -16.75
      vertex 0 0 -16.75
    endloop
  endfacet
  facet normal 0 -1 0
    outer loop
      vertex 0 -5 -16.75
      vertex 29.5 -5 7.25
      vertex 0 -5 7.25
    endloop
  endfacet
  facet normal 0 -1 -0
    outer loop
      vertex 29.5 -5 7.25
      vertex 0 -5 -16.75
      vertex 29.5 -5 -16.75
    endloop
  endfacet
  facet normal 0 1 -0
    outer loop
      vertex 29.5 0 0
      vertex 0 0 7.25
      vertex 29.5 0 7.25
    endloop
  endfacet
  facet normal 0 1 0
    outer loop
      vertex 0 0 7.25
      vertex 29.5 0 0
      vertex 0 0 0
    endloop
  endfacet
  facet normal 0 1 -0
    outer loop
      vertex 29.5 0 -16.75
      vertex 0 0 0
      vertex 29.5 0 0
    endloop
  endfacet
  facet normal 0 1 0
    outer loop
      vertex 0 0 0
      vertex 29.5 0 -16.75
      vertex 0 0 -16.75
    endloop
  endfacet
  facet normal 1 -0 0
    outer loop
      vertex 1.25 -3.75 7.25
      vertex 1.25 -1.25 -14.75
      vertex 1.25 -1.25 7.25
    endloop
  endfacet
  facet normal 1 0 0
    outer loop
      vertex 1.25 -1.25 -14.75
      vertex 1.25 -3.75 7.25
      vertex 1.25 -3.75 -14.75
    endloop
  endfacet
  facet normal -1 0 0
    outer loop
      vertex 28.25 -3.75 -14.75
      vertex 28.25 -1.25 7.25
      vertex 28.25 -1.25 -14.75
    endloop
  endfacet
  facet normal -1 -0 0
    outer loop
      vertex 28.25 -1.25 7.25
      vertex 28.25 -3.75 -14.75
      vertex 28.25 -3.75 7.25
    endloop
  endfacet
  facet normal -0 0 1
    outer loop
      vertex 1.25 -1.25 -14.75
      vertex 28.25 -3.75 -14.75
      vertex 28.25 -1.25 -14.75
    endloop
  endfacet
  facet normal 0 0 1
    outer loop
      vertex 28.25 -3.75 -14.75
      vertex 1.25 -1.25 -14.75
      vertex 1.25 -3.75 -14.75
    endloop
  endfacet
  facet normal 0 1 -0
    outer loop
      vertex 28.25 -3.75 -14.75
      vertex 1.25 -3.75 7.25
      vertex 28.25 -3.75 7.25
    endloop
  endfacet
  facet normal 0 1 0
    outer loop
      vertex 1.25 -3.75 7.25
      vertex 28.25 -3.75 -14.75
      vertex 1.25 -3.75 -14.75
    endloop
  endfacet
  facet normal 0 -1 0
    outer loop
      vertex 1.25 -1.25 -14.75
      vertex 28.25 -1.25 7.25
      vertex 1.25 -1.25 7.25
    endloop
  endfacet
  facet normal 0 -1 -0
    outer loop
      vertex 28.25 -1.25 7.25
      vertex 1.25 -1.25 -14.75
      vertex 28.25 -1.25 -14.75
    endloop
  endfacet
  facet normal -0 0 1
    outer loop
      vertex 0 3.75 0
      vertex 29.5 0 0
      vertex 29.5 3.75 0
    endloop
  endfacet
  facet normal 0 0 1
    outer loop
      vertex 29.5 0 0
      vertex 0 3.75 0
      vertex 0 0 0
    endloop
  endfacet
  facet normal 0 0 -1
    outer loop
      vertex 0 0 0
      vertex 29.5 3.75 0
      vertex 29.5 0 0
    endloop
  endfacet
  facet normal -0 0 -1
    outer loop
      vertex 29.5 3.75 0
      vertex 0 0 0
      vertex 0 3.75 0
    endloop
  endfacet
  facet normal 0 0 -1
    outer loop
      vertex 0 0 7.25
      vertex 29.5 7.25 7.25
      vertex 29.5 0 7.25
    endloop
  endfacet
  facet normal -0 0 -1
    outer loop
      vertex 29.5 7.25 7.25
      vertex 0 0 7.25
      vertex 0 7.25 7.25
    endloop
  endfacet
  facet normal -0 0 1
    outer loop
      vertex 0 7.25 7.25
      vertex 29.5 0 7.25
      vertex 29.5 7.25 7.25
    endloop
  endfacet
  facet normal 0 0 1
    outer loop
      vertex 29.5 0 7.25
      vertex 0 7.25 7.25
      vertex 0 0 7.25
    endloop
  endfacet
  facet normal -1 0 0
    outer loop
      vertex 29.5 0 7.25
      vertex 29.5 7.25 4.75
      vertex 29.5 3.75 0
    endloop
  endfacet
  facet normal -1 0 0
    outer loop
      vertex 29.5 0 7.25
      vertex 29.5 3.75 0
      vertex 29.5 0 0
    endloop
  endfacet
  facet normal -1 0 0
    outer loop
      vertex 29.5 7.25 4.75
      vertex 29.5 0 7.25
      vertex 29.5 7.25 7.25
    endloop
  endfacet
  facet normal 1 -0 0
    outer loop
      vertex 29.5 0 7.25
      vertex 29.5 7.25 4.75
      vertex 29.5 7.25 7.25
    endloop
  endfacet
  facet normal 1 0 0
    outer loop
      vertex 29.5 7.25 4.75
      vertex 29.5 0 7.25
      vertex 29.5 3.75 0
    endloop
  endfacet
  facet normal 1 0 0
    outer loop
      vertex 29.5 3.75 0
      vertex 29.5 0 7.25
      vertex 29.5 0 0
    endloop
  endfacet
  facet normal 0 -0.805056 0.593199
    outer loop
      vertex 0 3.75 0
      vertex 29.5 7.25 4.75
      vertex 0 7.25 4.75
    endloop
  endfacet
  facet normal 0 -0.805056 0.593199
    outer loop
      vertex 29.5 7.25 4.75
      vertex 0 3.75 0
      vertex 29.5 3.75 0
    endloop
  endfacet
  facet normal 0 0.805056 -0.593199
    outer loop
      vertex 29.5 3.75 0
      vertex 0 7.25 4.75
      vertex 29.5 7.25 4.75
    endloop
  endfacet
  facet normal 0 0.805056 -0.593199
    outer loop
      vertex 0 7.25 4.75
      vertex 29.5 3.75 0
      vertex 0 3.75 0
    endloop
  endfacet
  facet normal 1 -0 0
    outer loop
      vertex 0 0 7.25
      vertex 0 7.25 4.75
      vertex 0 7.25 7.25
    endloop
  endfacet
  facet normal 1 0 0
    outer loop
      vertex 0 7.25 4.75
      vertex 0 0 7.25
      vertex 0 3.75 0
    endloop
  endfacet
  facet normal 1 0 0
    outer loop
      vertex 0 3.75 0
      vertex 0 0 7.25
      vertex 0 0 0
    endloop
  endfacet
  facet normal -1 0 0
    outer loop
      vertex 0 0 7.25
      vertex 0 7.25 4.75
      vertex 0 3.75 0
    endloop
  endfacet
  facet normal -1 0 0
    outer loop
      vertex 0 0 7.25
      vertex 0 3.75 0
      vertex 0 0 0
    endloop
  endfacet
  facet normal -1 0 0
    outer loop
      vertex 0 7.25 4.75
      vertex 0 0 7.25
      vertex 0 7.25 7.25
    endloop
  endfacet
  facet normal 0 0 -1
    outer loop
      vertex 0 7.25 0
      vertex 29.5 10.5 0
      vertex 29.5 7.25 0
    endloop
  endfacet
  facet normal -0 0 -1
    outer loop
      vertex 29.5 10.5 0
      vertex 0 7.25 0
      vertex 0 10.5 0
    endloop
  endfacet
  facet normal 0 -1 0
    outer loop
      vertex 0 7.25 0
      vertex 29.5 7.25 11
      vertex 0 7.25 11
    endloop
  endfacet
  facet normal 0 -1 -0
    outer loop
      vertex 29.5 7.25 11
      vertex 0 7.25 0
      vertex 29.5 7.25 0
    endloop
  endfacet
  facet normal -0 0 1
    outer loop
      vertex 0 10.5 11
      vertex 29.5 7.25 11
      vertex 29.5 10.5 11
    endloop
  endfacet
  facet normal 0 0 1
    outer loop
      vertex 29.5 7.25 11
      vertex 0 10.5 11
      vertex 0 7.25 11
    endloop
  endfacet
  facet normal 0 1 -0
    outer loop
      vertex 29.5 10.5 0
      vertex 0 10.5 11
      vertex 29.5 10.5 11
    endloop
  endfacet
  facet normal 0 1 0
    outer loop
      vertex 0 10.5 11
      vertex 29.5 10.5 0
      vertex 0 10.5 0
    endloop
  endfacet
  facet normal 1 -0 0
    outer loop
      vertex 29.5 7.25 11
      vertex 29.5 10.5 0
      vertex 29.5 10.5 11
    endloop
  endfacet
  facet normal 1 0 0
    outer loop
      vertex 29.5 10.5 0
      vertex 29.5 7.25 11
      vertex 29.5 7.25 0
    endloop
  endfacet
  facet normal -1 0 0
    outer loop
      vertex 0 7.25 0
      vertex 0 10.5 11
      vertex 0 10.5 0
    endloop
  endfacet
  facet normal -1 -0 0
    outer loop
      vertex 0 10.5 11
      vertex 0 7.25 0
      vertex 0 7.25 11
    endloop
  endfacet
endsolid OpenSCAD_Model
